<svg width="27" height="27" viewBox="0 0 27 27" fill="none" xmlns="http://www.w3.org/2000/svg">
<path d="M13.4996 5.625C15.3184 5.625 16.9885 6.24772 18.3217 7.28332L22.4135 3.3796C20.0344 1.28245 16.9203 0 13.4996 0C8.31601 0 3.82082 2.9249 1.55859 7.21108L6.10858 10.8031C7.21078 7.78429 10.0992 5.625 13.4996 5.625Z" fill="#F44336"/>
<path d="M26.8831 15.1896C26.9534 14.6365 27 14.0723 27 13.5C27 12.5349 26.8946 11.5952 26.7021 10.6875H13.5V16.3125H20.797C20.2067 17.8467 19.1556 19.145 17.8178 20.0469L22.3846 23.6523C24.8055 21.5274 26.4622 18.5517 26.8831 15.1896Z" fill="#2196F3"/>
<path d="M5.625 13.4999C5.625 12.551 5.80147 11.6454 6.10902 10.803L1.55903 7.21094C0.567375 9.08987 0 11.2275 0 13.4999C0 15.7468 0.556938 17.8607 1.52799 19.7244L6.08375 16.1278C5.79199 15.3048 5.625 14.4228 5.625 13.4999Z" fill="#FFC107"/>
<path d="M13.4994 21.375C10.0731 21.375 7.16608 19.183 6.0831 16.1279L1.52734 19.7246C3.77851 24.0452 8.29039 27 13.4994 27C16.9056 27 20.0117 25.7346 22.384 23.6523L17.8171 20.0469C16.5832 20.8788 15.1063 21.375 13.4994 21.375Z" fill="#00B060"/>
<path opacity="0.1" d="M13.4992 26.7188C9.52611 26.7188 5.95356 25.0795 3.42773 22.4678C5.90028 25.2426 9.49026 27 13.4992 27C17.4711 27 21.0314 25.2773 23.4984 22.5459C20.98 25.1153 17.4346 26.7188 13.4992 26.7188Z" fill="black"/>
<path opacity="0.1" d="M13.5 16.0312V16.3125H20.797L20.9109 16.0312H13.5Z" fill="black"/>
<path d="M26.9942 13.6656C26.9951 13.6102 27.0005 13.5558 27.0005 13.5002C27.0005 13.4845 26.998 13.4693 26.9979 13.4536C26.9972 13.5245 26.9936 13.5945 26.9942 13.6656Z" fill="#E6E6E6"/>
<path opacity="0.2" d="M13.5 10.6875V10.9688H26.7588C26.7411 10.8759 26.7217 10.7796 26.7021 10.6875H13.5Z" fill="white"/>
<path d="M26.7021 10.6875H13.5V16.3125H20.797C19.6622 19.2618 16.8493 21.375 13.5 21.375C9.15079 21.375 5.625 17.8492 5.625 13.5C5.625 9.15072 9.15079 5.625 13.5 5.625C15.0771 5.625 16.5306 6.1095 17.7621 6.90827C17.9506 7.03077 18.145 7.14578 18.3221 7.28332L22.4139 3.3796L22.3216 3.3086C19.9541 1.2567 16.879 0 13.5 0C6.04413 0 0 6.04413 0 13.5C0 20.9558 6.04413 27 13.5 27C20.3824 27 26.0499 21.8461 26.8831 15.1896C26.9534 14.6365 27 14.0723 27 13.5C27 12.5349 26.8946 11.5952 26.7021 10.6875Z" fill="url(#paint0_linear_5869_5401)"/>
<path opacity="0.1" d="M17.7621 6.62682C16.5306 5.82804 15.0771 5.34354 13.5 5.34354C9.15079 5.34354 5.625 8.86926 5.625 13.2185C5.625 13.266 5.62564 13.3031 5.62646 13.3504C5.70234 9.06674 9.19823 5.62479 13.5 5.62479C15.0771 5.62479 16.5306 6.10929 17.7621 6.90807C17.9506 7.03056 18.145 7.14558 18.3221 7.28311L22.4139 3.37939L18.3221 7.00186C18.145 6.86433 17.9506 6.74931 17.7621 6.62682Z" fill="black"/>
<path opacity="0.2" d="M13.5 0.28125C16.8469 0.28125 19.8933 1.51694 22.2517 3.5343L22.4139 3.3796L22.2901 3.27181C19.9226 1.2199 16.879 0 13.5 0C6.04413 0 0 6.04413 0 13.5C0 13.5474 0.00659183 13.5932 0.00707242 13.6406C0.08329 6.25033 6.09158 0.28125 13.5 0.28125Z" fill="white"/>
<defs>
<linearGradient id="paint0_linear_5869_5401" x1="0" y1="13.5" x2="27" y2="13.5" gradientUnits="userSpaceOnUse">
<stop stop-color="white" stop-opacity="0.2"/>
<stop offset="1" stop-color="white" stop-opacity="0"/>
</linearGradient>
</defs>
</svg>
